<?xml version="1.0" encoding="utf-8"?>
<!-- Generator: Adobe Illustrator 19.0.0, SVG Export Plug-In . SVG Version: 6.00 Build 0)  -->
<svg version="1.1" id="Layer_1" xmlns="http://www.w3.org/2000/svg" xmlns:xlink="http://www.w3.org/1999/xlink" x="0px" y="0px"
	 viewBox="-914 353 90 95" style="enable-background:new -914 353 90 95;" xml:space="preserve">
<style type="text/css">
	.st0{fill:#CB1228;}
</style>
<title>crane</title>
<desc>Created with Sketch.</desc>
<g id="Page-1">
	<g id="promlit.ru" transform="translate(-90.000000, -4037.000000)">
		<g id="Group-56" transform="translate(90.000000, 3877.000000)">
			<g id="Group-54-Copy" transform="translate(0.000000, 153.000000)">
				<g id="crane" transform="translate(0.000000, 7.000000)">
					<path id="Shape" class="st0" d="M-826.5,430.3c1.1,0,1.9-0.9,1.9-1.9v-9.7c0-1.1-0.9-1.9-1.9-1.9h-23.8l-10.9-10.9
						c0.7-1.3,1.2-2.8,1.2-4.5c0-4.4-3.1-8.1-7.3-9V389h4.9c1.1,0,1.9-0.9,1.9-1.9v-11.6c0-1.1-0.9-1.9-1.9-1.9h-4.9v-18.5
						c0-1.1-0.9-1.9-1.9-1.9s-1.9,0.9-1.9,1.9v18.5h-4.9c-1.1,0-1.9,0.9-1.9,1.9V387c0,1.1,0.9,1.9,1.9,1.9h4.9v5.1
						c0,1.1,0.9,1.9,1.9,1.9c2.9,0,5.3,2.4,5.3,5.3c0,2.9-2.4,5.3-5.3,5.3s-5.3-2.4-5.3-5.3c0-1.1-0.9-1.9-1.9-1.9
						c-1.1,0-1.9,0.9-1.9,1.9c0,1.6,0.4,3.1,1.1,4.4l-10.9,10.9h-23.7c-1.1,0-1.9,0.9-1.9,1.9v9.7c0,1.1,0.9,1.9,1.9,1.9h3.9v3.9
						h-3.9c-1.1,0-1.9,0.9-1.9,1.9v9.7c0,1.1,0.9,1.9,1.9,1.9h85.4c1.1,0,1.9-0.9,1.9-1.9v-9.7c0-1.1-0.9-1.9-1.9-1.9h-3.9v-3.9
						L-826.5,430.3L-826.5,430.3z M-874,385.1v-7.8h9.7v7.8H-874z M-874.7,408.8c1.5,1.2,3.5,1.9,5.5,1.9c2.1,0,4-0.7,5.5-1.8
						l7.9,7.9h-27L-874.7,408.8z M-840.4,430.3h6.2v3.9h-33c-1.1,0-1.9,0.9-1.9,1.9c0,1.1,0.9,1.9,1.9,1.9h34.9h3.9v5.8H-910v-5.8
						h3.9h11c1.1,0,1.9-0.9,1.9-1.9c0-1.1-0.9-1.9-1.9-1.9h-9.1v-3.9h24.7c1.1,0,1.9-0.9,1.9-1.9c0-1.1-0.9-1.9-1.9-1.9h-26.7h-3.9
						v-5.8h81.5l0,5.8h-2.6h-1.3h-8.2c-1.1,0-1.9,0.9-1.9,1.9C-842.4,429.5-841.5,430.3-840.4,430.3z"/>
					<path id="Shape-Copy" class="st0" d="M-886.2,434.6c-0.7-0.7-1.9-0.7-2.6,0c-0.7,0.7-0.7,1.9,0,2.6c0.4,0.3,0.8,0.5,1.3,0.5
						c1,0,1.8-0.8,1.8-1.9C-885.6,435.5-885.8,435-886.2,434.6z"/>
					<path id="Shape_1_" class="st0" d="M-846.3,427c-0.7-0.7-1.9-0.7-2.6,0c-0.7,0.7-0.7,1.9,0,2.6c0.4,0.3,0.8,0.5,1.3,0.5
						c1,0,1.8-0.8,1.8-1.9C-845.7,427.9-845.9,427.4-846.3,427z"/>
				</g>
			</g>
		</g>
	</g>
</g>
</svg>
