<?xml version="1.0" encoding="utf-8"?>
<!-- Generator: Adobe Illustrator 19.0.0, SVG Export Plug-In . SVG Version: 6.00 Build 0)  -->
<svg version="1.1" id="Layer_1" xmlns="http://www.w3.org/2000/svg" xmlns:xlink="http://www.w3.org/1999/xlink" x="0px" y="0px"
	 viewBox="-924 360 71 82" style="enable-background:new -924 360 71 82;" xml:space="preserve">
<style type="text/css">
	.st0{fill:#CB1228;}
</style>
<title>file</title>
<desc>Created with Sketch.</desc>
<g id="Page-1">
	<g id="promlit.ru" transform="translate(-770.000000, -3112.000000)">
		<g id="Group-85" transform="translate(90.000000, 3003.000000)">
			<g id="Group-80" transform="translate(0.000000, 105.000000)">
				<g id="Group-34" transform="translate(680.000000, 0.000000)">
					<g id="file" transform="translate(0.000000, 4.000000)">
						<path id="Shape" class="st0" d="M-867,425.1c-0.6-0.5-1.5-0.5-2,0l-3.3,3.1v-15.6c0-0.7-0.6-1.3-1.4-1.3
							c-0.8,0-1.4,0.6-1.4,1.3v15.6l-3.3-3.1c-0.6-0.5-1.5-0.5-2,0c-0.6,0.5-0.6,1.4,0,1.9l5.7,5.4c0.3,0.3,0.6,0.4,1,0.4
							c0.4,0,0.7-0.1,1-0.4l5.7-5.4C-866.5,426.5-866.5,425.6-867,425.1z"/>
						<path id="Shape_1_" class="st0" d="M-874.3,401c-11.6,0-21,9.2-21,20.5c0,11.3,9.4,20.5,21,20.5c11.6,0,21-9.2,21-20.5
							C-853.3,410.2-862.7,401-874.3,401z M-874.3,439.3c-10,0-18.2-8-18.2-17.8s8.2-17.8,18.2-17.8c10,0,18.2,8,18.2,17.8
							S-864.2,439.3-874.3,439.3z"/>
						<path id="Shape_2_" class="st0" d="M-893.6,436.1h-27.6v-10c0-0.8-0.6-1.4-1.4-1.4s-1.4,0.6-1.4,1.4v11.5
							c0,0.8,0.6,1.4,1.4,1.4h29c0.8,0,1.4-0.6,1.4-1.4S-892.8,436.1-893.6,436.1z"/>
						<path id="Shape_3_" class="st0" d="M-923,419.5c-0.6,0-1,0.5-1,1s0.5,1,1,1h0c0.6,0,1-0.5,1-1S-922.4,419.5-923,419.5z"/>
						<path id="Shape_4_" class="st0" d="M-866,382l-22.3-21.6c-0.3-0.3-0.6-0.4-1-0.4h-33.4c-0.8,0-1.4,0.6-1.4,1.3V414
							c0,0.7,0.6,1.3,1.4,1.3c0.8,0,1.4-0.6,1.4-1.3v-51.3h30.6V383c0,0.7,0.6,1.3,1.4,1.3h20.9v12.2c0,0.7,0.6,1.3,1.4,1.3
							c0.8,0,1.4-0.6,1.4-1.3V383C-865.6,382.6-865.7,382.2-866,382z M-887.8,381.6v-17l17.5,17H-887.8z"/>
					</g>
				</g>
			</g>
		</g>
	</g>
</g>
</svg>
