<?xml version="1.0" encoding="utf-8"?>
<!-- Generator: Adobe Illustrator 19.0.0, SVG Export Plug-In . SVG Version: 6.00 Build 0)  -->
<svg version="1.1" id="Layer_1" xmlns="http://www.w3.org/2000/svg" xmlns:xlink="http://www.w3.org/1999/xlink" x="0px" y="0px"
	 viewBox="-864 380 191 42" style="enable-background:new -864 380 191 42;" xml:space="preserve">
<style type="text/css">
	.st0{fill:#FFFFFF;}
	.st1{fill:#CB1228;}
</style>
<title>logo</title>
<desc>Created with Sketch.</desc>
<g id="Page-1">
	<g id="promlit.ru" transform="translate(-90.000000, -40.000000)">
		<g id="Group-79">
			<g id="Group-25" transform="translate(90.000000, 35.000000)">
				<g id="logo" transform="translate(0.000000, 5.000000)">
					<path id="Промлит-Copy-7" class="st0" d="M-863.5,392.2h17.3V421h-5.8v-23h-5.8v23h-5.8V392.2z M-828.9,412.4h-5.8v8.6
						h-5.8v-28.8h11.5c0.8,0,1.5,0.1,2.2,0.4s1.3,0.7,1.8,1.2c0.5,0.5,0.9,1.1,1.3,1.8c0.3,0.7,0.5,1.4,0.5,2.2v8.7
						c0,0.8-0.2,1.5-0.5,2.2c-0.3,0.7-0.7,1.3-1.3,1.8c-0.5,0.5-1.1,0.9-1.8,1.2S-828.2,412.4-828.9,412.4z M-828.9,398h-5.8v8.7
						h5.8V398z M-805.9,421h-5.8c-0.8,0-1.5-0.1-2.2-0.4s-1.3-0.7-1.8-1.2c-0.5-0.5-0.9-1.1-1.2-1.8c-0.3-0.7-0.4-1.4-0.4-2.2V398
						c0-0.8,0.1-1.5,0.4-2.2c0.3-0.7,0.7-1.3,1.2-1.8s1.1-0.9,1.8-1.2s1.4-0.4,2.2-0.4h5.8c0.8,0,1.5,0.1,2.2,0.4
						c0.7,0.3,1.3,0.7,1.8,1.2s0.9,1.1,1.3,1.8c0.3,0.7,0.5,1.4,0.5,2.2v17.3c0,0.8-0.2,1.5-0.5,2.2c-0.3,0.7-0.7,1.3-1.3,1.8
						c-0.5,0.5-1.1,0.9-1.8,1.2C-804.4,420.9-805.1,421-805.9,421z M-805.9,398h-5.8v17.3h5.8V398z M-777.5,392.2h6.2V421h-5.8
						v-10.1l-3.1,10.1h-5.4l-3.1-10.1V421h-5.8v-28.8h6.2l5.3,17.8L-777.5,392.2z"/>
					<g id="Group-2" transform="translate(98.211268, 2.000000)">
						<path id="Path" class="st1" d="M-851.3,380.4h16.7V420h-8.4v-31.7h-8.3v23.8c0,1.1-0.2,2.1-0.7,3.1s-1,1.8-1.8,2.5
							s-1.6,1.3-2.7,1.7s-2.1,0.6-3.3,0.6h-4.2v-7.9h4.2v-23.8c0-1.1,0.2-2.1,0.7-3.1s1-1.8,1.8-2.5c0.8-0.7,1.6-1.3,2.7-1.7
							C-853.5,380.6-852.5,380.4-851.3,380.4z"/>
						<polygon id="Path_1_" class="st1" points="-820,401.6 -811.6,383.5 -811.6,380.4 -803.2,380.4 -803.2,420 -811.6,420 
							-811.6,403.3 -819.3,420 -828.3,420 -828.3,380.4 -820,380.4 						"/>
						<polygon id="Path_2_" class="st1" points="-797.1,388.3 -797.1,380.4 -772,380.4 -772,388.3 -780.4,388.3 -780.4,420 
							-788.8,420 -788.8,388.3 						"/>
					</g>
					<rect id="Rectangle-Copy-5" x="-863.4" y="380" class="st1" width="92.2" height="6"/>
				</g>
			</g>
		</g>
	</g>
</g>
</svg>
