<?xml version="1.0" encoding="utf-8"?>
<!-- Generator: Adobe Illustrator 19.0.0, SVG Export Plug-In . SVG Version: 6.00 Build 0)  -->
<svg version="1.1" id="Layer_1" xmlns="http://www.w3.org/2000/svg" xmlns:xlink="http://www.w3.org/1999/xlink" x="0px" y="0px"
	 viewBox="-926 368 66 66" style="enable-background:new -926 368 66 66;" xml:space="preserve">
<style type="text/css">
	.st0{fill:#CB1228;}
</style>
<title>point</title>
<desc>Created with Sketch.</desc>
<g id="Page-1">
	<g id="promlit.ru" transform="translate(-926.000000, -5622.000000)">
		<g id="Group-76" transform="translate(0.000000, 4958.000000)">
			<g id="Group-54" transform="translate(90.000000, 516.000000)">
				<g id="Group-75" transform="translate(440.000000, 6.000000)">
					<g id="point" transform="translate(396.000000, 142.000000)">
						<path id="Shape" class="st0" d="M-893,368c-10.5,0-19,8.5-19,19c0,4.3,1.5,8.6,4.2,12c0,0,0,0.1,0.1,0.1l13.7,17.5
							c0.2,0.3,0.6,0.5,1,0.5s0.8-0.2,1-0.5l13.7-17.6c0,0,0,0,0,0c2.7-3.4,4.2-7.6,4.2-11.9C-874,376.5-882.5,368-893,368z
							 M-880.3,397.3C-880.3,397.3-880.3,397.4-880.3,397.3l-12.7,16.3l-12.6-16.1c0-0.1-0.1-0.1-0.1-0.1c-2.4-2.9-3.8-6.6-3.8-10.4
							c0-9,7.4-16.4,16.4-16.4c9.1,0,16.4,7.4,16.4,16.4C-876.6,390.7-877.9,394.4-880.3,397.3z"/>
						<path id="Shape_1_" class="st0" d="M-882.5,384.2c-0.2-0.7-0.9-1.1-1.6-0.9c-0.7,0.2-1.1,0.9-0.9,1.6c0.9,3.1,0.1,6.5-2.3,8.9
							c-1.7,1.7-3.9,2.6-6.3,2.6s-4.6-0.9-6.3-2.6c-1.7-1.7-2.6-3.9-2.6-6.3c0-2.4,0.9-4.6,2.6-6.3c2.3-2.3,5.7-3.2,8.9-2.3
							c0.7,0.2,1.4-0.2,1.6-0.9c0.2-0.7-0.2-1.4-0.9-1.6c-4.1-1.2-8.4-0.1-11.4,2.9c-2.2,2.2-3.4,5.1-3.4,8.1c0,3.1,1.2,6,3.4,8.1
							c2.2,2.2,5.1,3.4,8.1,3.4s6-1.2,8.1-3.4C-882.4,392.7-881.3,388.3-882.5,384.2z"/>
						<path id="Shape_2_" class="st0" d="M-884.4,379.5L-884.4,379.5c-0.6-0.6-1.5-0.6-2.1,0c-0.6,0.6-0.6,1.5,0,2.1l0,0
							c0.3,0.3,0.7,0.4,1.1,0.4c0.4,0,0.8-0.1,1.1-0.4C-883.9,381-883.9,380-884.4,379.5z"/>
						<path id="Shape_3_" class="st0" d="M-873.2,407.5c-0.7-0.2-1.4,0.1-1.6,0.8c-0.2,0.7,0.1,1.4,0.8,1.6
							c7.2,2.3,11.4,5.9,11.4,9.4c0,3-3.1,6-8.5,8.3c-5.8,2.5-13.6,3.8-21.9,3.8s-16.1-1.4-21.9-3.8c-5.4-2.3-8.5-5.3-8.5-8.3
							c0-2.5,2.2-5.1,6.1-7.2c4.2-2.2,10.1-3.9,16.6-4.6c0.7-0.1,1.2-0.7,1.1-1.4c-0.1-0.7-0.7-1.2-1.4-1.1
							c-6.9,0.7-13.1,2.5-17.6,4.9c-4.9,2.6-7.5,5.9-7.5,9.4c0,4.1,3.6,7.9,10.1,10.7c6.1,2.6,14.3,4,22.9,4s16.8-1.4,22.9-4
							c6.5-2.7,10.1-6.5,10.1-10.7C-860,414.5-864.8,410.2-873.2,407.5z"/>
						<path id="Shape_4_" class="st0" d="M-879.2,406L-879.2,406c-0.8-0.2-1.6,0.4-1.8,1.2c-0.2,0.8,0.4,1.6,1.2,1.8l0.1,0
							c0.1,0,0.2,0,0.3,0c0.7,0,1.3-0.5,1.4-1.2C-877.9,407-878.4,406.2-879.2,406z"/>
					</g>
				</g>
			</g>
		</g>
	</g>
</g>
</svg>
