<?xml version="1.0" encoding="utf-8"?>
<!-- Generator: Adobe Illustrator 19.0.0, SVG Export Plug-In . SVG Version: 6.00 Build 0)  -->
<svg version="1.1" id="Layer_1" xmlns="http://www.w3.org/2000/svg" xmlns:xlink="http://www.w3.org/1999/xlink" x="0px" y="0px"
	 viewBox="-909 351 100 100" style="enable-background:new -909 351 100 100;" xml:space="preserve">
<style type="text/css">
	.st0{fill:#CB1228;}
</style>
<title>saw</title>
<desc>Created with Sketch.</desc>
<g id="Page-1">
	<g id="promlit.ru" transform="translate(-90.000000, -3884.000000)">
		<g id="Group-56" transform="translate(90.000000, 3877.000000)">
			<g id="Group-55-Copy">
				<g id="saw" transform="translate(0.000000, 7.000000)">
					<path id="Shape" class="st0" d="M-859.2,379.3c-1.1,0-2,0.9-2,2s0.9,2,2,2c10,0,18,8.1,18,18c0,1.1,0.9,2,2,2c1.1,0,2-0.9,2-2
						C-837.3,389.1-847.1,379.3-859.2,379.3z"/>
					<path id="Shape_1_" class="st0" d="M-864.7,417.5c-7.2-2.5-12.1-9.3-12.1-16.8c0-1.1-0.9-1.9-2-1.9c-1.1,0-2,0.9-2,1.9
						c0,9.1,5.9,17.3,14.7,20.4c0.2,0.1,0.5,0.1,0.7,0.1c0.8,0,1.6-0.5,1.9-1.3C-863.1,419-863.6,417.9-864.7,417.5z"/>
					<path id="Shape_2_" class="st0" d="M-859,419.1L-859,419.1C-859,419.1-859,419.1-859,419.1c-1.3,0-2.2,0.8-2.2,1.8
						c0,1,0.9,1.8,2.1,1.8l0.1,0c1.2,0,2.1-0.8,2.1-1.8C-856.8,419.9-857.8,419.1-859,419.1z"/>
					<path id="Shape_3_" class="st0" d="M-812.7,393.8l-8.5-5.7c-0.3-0.2-0.5-0.6-0.4-0.9c0-0.4,0.3-0.6,0.4-0.7
						c0.1-0.1,0.5-0.2,0.8-0.1l5.9,1.7c0.4,0.2,0.9,0.3,1.4,0.2c1-0.3,1.6-1.3,1.4-2.3l0,0c0-0.1-0.1-0.2-0.1-0.3l-1.4-4.2
						c-1-3-3.5-5.1-6.5-5.7l-10.1-1.8c-0.4-0.1-0.7-0.3-0.8-0.7c-0.1-0.4,0-0.7,0.1-0.9c0.1-0.2,0.3-0.4,0.7-0.5l6.4-0.9
						c0.7-0.1,1.3-0.6,1.6-1.3s0.1-1.4-0.4-2l-3.1-3.4c-2.1-2.3-5.3-3.3-8.3-2.5l-9.9,2.5c-0.4,0.1-0.7,0-1-0.3
						c-0.3-0.3-0.3-0.6-0.3-0.8c0-0.2,0.1-0.5,0.5-0.7l5.5-3.4c0.6-0.4,1-1.1,0.9-1.8c-0.1-0.7-0.5-1.4-1.2-1.6l-4.2-1.9
						c-2.8-1.3-6.1-0.9-8.6,1.1l-8.1,6.3c-0.3,0.2-0.7,0.3-1,0.1c-0.4-0.2-0.5-0.5-0.6-0.6c0-0.2-0.1-0.5,0.1-0.8l3.6-5.4
						c0.2-0.4,0.4-0.8,0.3-1.2c0-1.1-0.9-1.9-2-1.9h-4.6c-3.1,0-6,1.7-7.4,4.5l-4.8,9c-0.2,0.3-0.5,0.5-0.9,0.5c0,0,0,0,0,0
						c-0.4,0-0.7-0.2-0.8-0.4c-0.1-0.1-0.3-0.4-0.2-0.8l1.1-6.4c0.1-0.7-0.2-1.4-0.7-1.9c-0.6-0.4-1.3-0.5-2-0.2l-4.2,1.9
						c-2.8,1.3-4.8,4-5,7.1l-0.7,10.2c0,0.4-0.3,0.7-0.6,0.8c-0.4,0.2-0.7,0.1-0.9,0c-0.2-0.1-0.4-0.3-0.5-0.7l-1.6-6.3
						c-0.2-0.7-0.7-1.2-1.4-1.4c-0.7-0.2-1.4,0.1-1.9,0.6l-3.1,3.4c-2.1,2.3-2.7,5.6-1.7,8.5l3.5,9.6c0.1,0.3,0.1,0.7-0.2,1
						c-0.3,0.3-0.6,0.3-0.8,0.3c-0.2,0-0.5-0.1-0.8-0.4l-4-5.1c-0.4-0.6-1.2-0.8-1.9-0.7c-0.7,0.1-1.3,0.6-1.5,1.3l-1.4,4.4
						c-1,3-0.2,6.2,1.9,8.4l7.1,7.4c0.3,0.3,0.3,0.7,0.2,1c-0.1,0.4-0.4,0.6-0.6,0.6c-0.2,0.1-0.5,0.1-0.9,0l-5.7-3
						c-0.6-0.3-1.4-0.3-2,0.1c-0.6,0.4-0.9,1.1-0.9,1.8l0.5,4.6c0.3,3.1,2.3,5.7,5.2,6.9l9.5,3.8c0.3,0.1,0.6,0.5,0.6,0.8
						c0,0.4-0.2,0.7-0.3,0.8c-0.1,0.1-0.4,0.3-0.8,0.3l-6.5-0.5c-0.7-0.1-1.4,0.3-1.8,0.9c-0.4,0.6-0.4,1.4,0,2l2.3,4
						c1.6,2.7,4.5,4.3,7.6,4.2l10.2-0.3c0.4,0,0.7,0.2,0.9,0.5c0.2,0.4,0.1,0.7,0.1,0.9c-0.1,0.2-0.2,0.5-0.6,0.6l-6.1,2.2
						c-0.7,0.2-1.2,0.8-1.3,1.6c-0.1,0.7,0.2,1.4,0.8,1.9l3.7,2.7c2.5,1.8,5.8,2.1,8.6,0.8l9.2-4.5c0.3-0.2,0.7-0.1,1,0.1
						c0.3,0.2,0.4,0.6,0.4,0.7s0,0.5-0.3,0.8l-4.7,4.5c-0.5,0.5-0.7,1.2-0.5,1.9c0.2,0.7,0.8,1.2,1.5,1.4l4.5,1
						c0.6,0.1,1.2,0.2,1.8,0.2c2.5,0,4.8-1.1,6.4-3l6.6-7.8c0.2-0.3,0.6-0.4,1-0.3c0.4,0.1,0.6,0.4,0.7,0.5c0.1,0.2,0.2,0.5,0,0.9
						l-2.4,5.9c-0.2,0.4-0.3,0.8-0.2,1.3c0.2,1.1,1.3,1.7,2.3,1.5l4.5-1c3-0.6,5.5-2.9,6.3-5.9l2.8-9.8c0.1-0.4,0.4-0.6,0.8-0.7
						c0.4-0.1,0.7,0.1,0.8,0.2c0.1,0.1,0.4,0.4,0.4,0.8l0.2,6.5c0,0.7,0.4,1.4,1.1,1.7c0.6,0.3,1.4,0.2,2-0.2l3.7-2.7
						c2.5-1.8,3.8-4.9,3.4-8l-1.4-10.1c-0.1-0.4,0.1-0.7,0.4-1c0.3-0.2,0.7-0.2,0.8-0.2c0.2,0,0.5,0.2,0.7,0.5l2.8,5.8
						c0.3,0.6,1,1.1,1.7,1.1c0.7,0,1.4-0.3,1.8-1l2.3-4c1.6-2.7,1.5-6-0.1-8.7l-5.4-8.7c-0.2-0.3-0.2-0.7,0-1
						c0.2-0.4,0.5-0.5,0.7-0.5c0.2,0,0.5,0,0.8,0.2l5,4.2c0.6,0.5,1.3,0.6,2,0.3c0.7-0.3,1.1-0.9,1.2-1.6l0.5-4.6
						C-808.7,398.5-810.1,395.5-812.7,393.8z M-812.9,401.2l-0.1,0.9l-2.2-1.8c-1.1-0.9-2.6-1.3-4-1.1c-1.4,0.3-2.7,1.1-3.4,2.4
						c-0.9,1.6-0.9,3.5,0.1,5l5.4,8.7c0.9,1.4,0.9,3.2,0.1,4.6l-0.5,0.8l-1.2-2.5c-0.6-1.3-1.8-2.3-3.2-2.6
						c-1.4-0.3-2.9-0.1-4.1,0.8c-1.5,1.1-2.2,2.8-2,4.6l1.4,10.1c0.2,1.7-0.5,3.3-1.8,4.3l-0.8,0.6l-0.1-2.8
						c-0.1-1.5-0.7-2.8-1.9-3.7c-1.2-0.9-2.6-1.2-4.1-0.9c-1.8,0.4-3.2,1.7-3.7,3.4l-2.8,9.8c-0.5,1.6-1.8,2.8-3.4,3.2l-0.9,0.2
						l1.1-2.6c0.5-1.4,0.5-2.9-0.2-4.2c-0.7-1.3-1.9-2.2-3.3-2.5c-1.8-0.4-3.6,0.3-4.8,1.7l-6.6,7.8c-1.1,1.3-2.8,1.9-4.4,1.5
						l-0.9-0.2l2-2c1.1-1,1.6-2.4,1.5-3.9s-0.9-2.8-2-3.6c-1.5-1.1-3.4-1.2-5-0.4l-9.2,4.5c-1.5,0.7-3.3,0.6-4.6-0.4l-0.8-0.6l2.6-1
						c1.4-0.5,2.5-1.6,2.9-3s0.4-2.9-0.4-4.2c-0.9-1.6-2.6-2.5-4.4-2.4l-10.2,0.3c-1.7,0.1-3.2-0.8-4.1-2.3l-0.5-0.8l2.8,0.2
						c1.5,0.1,2.9-0.4,3.9-1.5s1.5-2.5,1.3-4c-0.2-1.8-1.4-3.3-3-4l-9.5-3.8c-1.5-0.6-2.6-2-2.8-3.7l-0.1-0.9l2.5,1.3
						c1.3,0.7,2.8,0.8,4.2,0.2c1.4-0.6,2.4-1.7,2.8-3.1c0.5-1.7,0.1-3.6-1.1-4.9l-7.1-7.4c-1.2-1.2-1.6-2.9-1-4.5l0.3-0.9l1.7,2.2
						c0.9,1.2,2.3,1.8,3.7,1.9c1.5,0,2.9-0.6,3.8-1.6c1.2-1.4,1.6-3.2,0.9-4.9l-3.5-9.6c-0.6-1.6-0.2-3.3,0.9-4.6l0.6-0.7l0.7,2.7
						c0.4,1.4,1.3,2.6,2.6,3.2c1.3,0.6,2.8,0.7,4.2,0.1c1.6-0.7,2.7-2.3,2.9-4.1l0.7-10.2c0.1-1.7,1.1-3.1,2.7-3.8l0.9-0.4l-0.5,2.8
						c-0.3,1.4,0.1,2.9,1.1,4c0.9,1.1,2.3,1.7,3.8,1.7c0,0,0,0,0,0c1.8,0,3.5-1,4.3-2.6l4.8-9c0.8-1.5,2.3-2.4,4-2.4h1l-1.6,2.4
						c-0.8,1.2-1.1,2.7-0.6,4.1c0.4,1.4,1.4,2.5,2.8,3.1c1.7,0.7,3.6,0.5,5-0.6l8.1-6.3c1.3-1,3.1-1.2,4.6-0.6l0.9,0.4l-2.4,1.5
						c-1.2,0.8-2.1,2.1-2.3,3.5c-0.2,1.5,0.3,2.9,1.2,4c1.2,1.3,3.1,1.9,4.8,1.5l9.9-2.5c1.6-0.4,3.3,0.1,4.4,1.4l0.6,0.7l-2.8,0.4
						c-1.5,0.2-2.7,1-3.5,2.3c-0.8,1.2-1,2.8-0.5,4.1c0.6,1.7,2,3,3.8,3.3l10.1,1.8c1.6,0.3,3,1.5,3.5,3l0.3,0.8l-2.7-0.8
						c-1.4-0.4-2.9-0.2-4.1,0.7c-1.2,0.8-2,2.1-2.1,3.6c-0.2,1.8,0.6,3.5,2.1,4.6l8.5,5.7C-813.5,397.9-812.8,399.5-812.9,401.2z"/>
					<path id="Shape_4_" class="st0" d="M-858.9,371.3l-0.1,0c-1.2,0-2.1,0.8-2.1,1.8c0,1,0.9,1.8,2.1,1.8l0.1,0c0,0,0,0,0,0
						c1.2,0,2.1-0.8,2.1-1.8C-856.8,372.1-857.8,371.3-858.9,371.3z"/>
					<path id="Shape_5_" class="st0" d="M-835.4,383.3c-3.9-5-9.3-8.7-15.4-10.5c-1.1-0.3-2.1,0.3-2.5,1.3c-0.3,1,0.3,2.1,1.4,2.4
						c11,3.1,18.6,13.2,18.6,24.6c0,14.1-11.6,25.6-25.7,25.6c-14.2,0-25.7-11.5-25.7-25.6c0-11.4,7.8-21.6,18.9-24.6
						c1.1-0.3,1.7-1.4,1.4-2.4c-0.3-1-1.4-1.7-2.4-1.4c-12.8,3.5-21.8,15.2-21.8,28.4c0,16.3,13.3,29.5,29.7,29.5
						s29.7-13.2,29.7-29.5C-829.3,394.7-831.4,388.5-835.4,383.3z"/>
					<path id="Shape_6_" class="st0" d="M-858.6,386.5c-8.2,0-14.9,6.7-14.9,14.9c0,8.2,6.7,14.9,14.9,14.9
						c8.2,0,14.9-6.7,14.9-14.9C-843.8,393.2-850.4,386.5-858.6,386.5z M-858.6,412.3c-6,0-10.9-4.9-10.9-10.9
						c0-6,4.9-10.9,10.9-10.9s10.9,4.9,10.9,10.9C-847.7,407.4-852.6,412.3-858.6,412.3z"/>
				</g>
			</g>
		</g>
	</g>
</g>
</svg>
