<?xml version="1.0" encoding="utf-8"?>
<!-- Generator: Adobe Illustrator 19.0.0, SVG Export Plug-In . SVG Version: 6.00 Build 0)  -->
<svg version="1.1" id="Layer_1" xmlns="http://www.w3.org/2000/svg" xmlns:xlink="http://www.w3.org/1999/xlink" x="0px" y="0px"
	 viewBox="-902 356 115 90" style="enable-background:new -902 356 115 90;" xml:space="preserve">
<style type="text/css">
	.st0{fill:#CB1228;}
</style>
<title>truck-1</title>
<desc>Created with Sketch.</desc>
<g id="Page-1">
	<g id="promlit.ru" transform="translate(-342.000000, -1156.000000)">
		<g id="Group-74" transform="translate(90.000000, 1010.000000)">
			<g id="Group-8" transform="translate(0.000000, 146.000000)">
				<g id="Group-72">
					<g id="truck-1" transform="translate(252.000000, 0.000000)">
						<path id="Shape" class="st0" d="M-818,367.4c-0.1,0-0.2,0-0.3,0h-56.2c-0.8,0-1.5,0.6-1.7,1.4l-1.7,9.6
							c-0.2,0.9,0.4,1.8,1.4,2c0.9,0.2,1.8-0.5,2-1.4l1.5-8.2h52.7l-7.7,42.9h-52.7l1.8-10c0.2-0.9-0.5-1.8-1.4-2
							c-0.9-0.2-1.8,0.4-2,1.4l-2.2,12c-0.2,0.9,0.4,1.8,1.4,2c0.1,0,0.2,0,0.3,0h56.2c0.8,0,1.5-0.6,1.7-1.4l8.4-46.4
							C-816.5,368.5-817.1,367.6-818,367.4z"/>
						<path id="Shape_1_" class="st0" d="M-865.6,383.1h-31.9c-2,0-3.7,0.8-3.7,1.7c0,1,1.6,1.7,3.7,1.7h31.9c2,0,3.7-0.8,3.7-1.7
							C-861.9,383.9-863.6,383.1-865.6,383.1z"/>
						<path id="Shape_2_" class="st0" d="M-879.9,390.6c-0.7-0.7-1.8-0.7-2.4,0c-0.3,0.3-0.5,0.8-0.5,1.2c0,0.5,0.2,0.9,0.5,1.2
							c0.7,0.7,1.8,0.7,2.4,0c0.3-0.3,0.5-0.8,0.5-1.2C-879.4,391.3-879.5,390.9-879.9,390.6z"/>
						<path id="Shape_3_" class="st0" d="M-855.4,390.1h-19.1c-1.2,0-2.2,0.8-2.2,1.7c0,1,1,1.7,2.2,1.7h19.1c1.2,0,2.2-0.8,2.2-1.7
							C-853.2,390.9-854.2,390.1-855.4,390.1z"/>
						<path id="Shape_4_" class="st0" d="M-869.6,395.3h-29c-1.8,0-3.3,0.8-3.3,1.7s1.5,1.7,3.3,1.7h29c1.8,0,3.3-0.8,3.3-1.7
							S-867.8,395.3-869.6,395.3z"/>
						<path id="Shape_5_" class="st0" d="M-859.8,395.8c-0.7-0.7-1.8-0.7-2.5,0c-0.7,0.7-0.7,1.8,0,2.5c0.3,0.3,0.8,0.5,1.2,0.5
							c1,0,1.7-0.8,1.7-1.8C-859.3,396.6-859.5,396.1-859.8,395.8z"/>
						<path id="Shape_6_" class="st0" d="M-792.3,357.4c0-0.1-0.1-0.2-0.1-0.3c-0.1-0.1-0.1-0.2-0.2-0.3c-0.1-0.1-0.1-0.2-0.2-0.3
							c-0.7-0.7-1.8-0.7-2.5,0c-0.1,0.1-0.2,0.2-0.2,0.3c-0.1,0.1-0.1,0.2-0.2,0.3c0,0.1-0.1,0.2-0.1,0.3c0,0.1,0,0.2,0,0.3
							c0,0.2,0,0.5,0.1,0.7c0.1,0.2,0.2,0.4,0.4,0.6c0.1,0.1,0.2,0.2,0.3,0.2c0.1,0.1,0.2,0.1,0.3,0.2c0.1,0,0.2,0.1,0.3,0.1
							c0.1,0,0.2,0,0.3,0c0.5,0,0.9-0.2,1.2-0.5c0.3-0.3,0.5-0.8,0.5-1.3C-792.2,357.6-792.2,357.5-792.3,357.4z"/>
						<path id="Shape_7_" class="st0" d="M-802.2,356h-20.9c-1.2,0-2.2,0.8-2.2,1.7c0,1,1,1.7,2.2,1.7h20.9c1.2,0,2.2-0.8,2.2-1.7
							C-800.1,356.8-801,356-802.2,356z"/>
						<path id="Shape_8_" class="st0" d="M-791,363.5c-0.4-0.4-1-0.6-1.6-0.5c-0.1,0-0.2,0-0.3,0.1c-0.1,0-0.2,0.1-0.3,0.2
							c-0.1,0-0.2,0.1-0.3,0.2c-0.2,0.2-0.3,0.3-0.4,0.6c-0.1,0.2-0.1,0.4-0.1,0.7c0,0.5,0.2,0.9,0.5,1.2c0.1,0.1,0.2,0.2,0.3,0.2
							c0.1,0.1,0.2,0.1,0.3,0.2c0.1,0.1,0.2,0.1,0.3,0.1c0.1,0,0.2,0,0.3,0c0.2,0,0.5-0.1,0.7-0.1c0.2-0.1,0.4-0.2,0.6-0.4
							c0.1-0.1,0.2-0.2,0.2-0.3c0.1-0.1,0.1-0.2,0.2-0.3c0-0.1,0.1-0.2,0.1-0.3c0-0.1,0-0.2,0-0.3
							C-790.5,364.3-790.7,363.8-791,363.5z"/>
						<path id="Shape_9_" class="st0" d="M-799.6,363h-14.8c-1.2,0-2.2,0.8-2.2,1.7c0,1,1,1.7,2.2,1.7h14.8c1.2,0,2.2-0.8,2.2-1.7
							C-797.5,363.8-798.4,363-799.6,363z"/>
						<path id="Shape_10_" class="st0" d="M-805.4,430.9c-0.9-1-2.2-1.6-3.6-1.5c-2.8,0-5.2,1.9-5.7,4.5c-0.3,1.3,0.1,2.6,0.9,3.6
							c0.9,1,2.2,1.6,3.6,1.5c2.8,0,5.2-1.9,5.7-4.5C-804.2,433.2-804.6,431.9-805.4,430.9z M-808,433.9L-808,433.9
							c-0.3,1-1.2,1.7-2.3,1.7c-0.3,0-0.7-0.1-0.9-0.3c-0.2-0.2-0.3-0.5-0.2-0.8c0.3-1,1.2-1.7,2.3-1.7c0.3,0,0.7,0.1,0.9,0.3
							C-808,433.3-807.9,433.6-808,433.9z"/>
						<path id="Shape_11_" class="st0" d="M-846.1,434c-0.6-0.7-1.5-1.2-2.5-1.1c-1.8,0-3.4,1.3-3.7,3.2c-0.2,0.9,0.1,1.9,0.7,2.7
							c0.6,0.7,1.5,1.2,2.5,1.2c1.8,0,3.4-1.3,3.7-3.2C-845.3,435.8-845.5,434.8-846.1,434z"/>
						<path id="Shape_12_" class="st0" d="M-865.3,434c-0.6-0.7-1.5-1.2-2.5-1.2c-1.8,0-3.4,1.3-3.7,3.2c-0.2,0.9,0.1,1.9,0.7,2.7
							c0.6,0.7,1.5,1.2,2.5,1.2c1.8,0,3.4-1.3,3.7-3.2C-864.4,435.8-864.7,434.8-865.3,434z"/>
						<path id="Shape_13_" class="st0" d="M-787,409l-2.1-22.1c0.4,0,0.8-0.2,1.1-0.6c0.3-0.4,0.5-0.9,0.4-1.4l-0.8-4.8
							c-0.1-0.8-0.9-1.4-1.7-1.4h-23.2c-0.8,0-1.5,0.6-1.7,1.4l-7.3,40.1h-64.7c-0.8,0-1.5,0.6-1.7,1.4l-1.2,6.4
							c-0.2,0.9,0.4,1.8,1.4,2c0.1,0,0.2,0,0.3,0h4.6l-0.8,4.4c-0.2,0.9,0.4,1.8,1.4,2c0.1,0,0.2,0,0.3,0h4.6
							c-0.4,2.3,0.3,4.7,1.8,6.6c1.7,2,4.2,3.1,6.8,3c5.2-0.1,9.8-3.6,11.2-8.7c-0.1,2.1,0.6,4.1,1.9,5.7c1.7,2,4.2,3.1,6.8,3
							c5.5-0.1,10.3-4,11.4-9.4c0-0.1,0-0.1,0-0.2h16.6c0,2.2,0.7,4.4,2.2,6.1c2,2.3,4.9,3.6,7.9,3.5c5.9-0.2,11.1-4,13-9.6h5.3
							c0.8,0,1.5-0.6,1.7-1.4l2.3-12.8l0.7-3.9l1.6-8.9c0-0.1,0-0.1,0-0.2C-787,409.2-787,409.1-787,409z M-882.9,426.6h-3.1l0.5-3
							h3.1L-882.9,426.6z M-861.5,436c-0.9,3.8-4.2,6.5-8,6.6c-1.6,0.1-3.1-0.6-4.2-1.8c-0.9-1.2-1.3-2.7-1-4.2
							c0.9-3.8,4.2-6.5,8-6.6c1.6-0.1,3.1,0.6,4.2,1.8C-861.5,433-861.1,434.5-861.5,436z M-841.6,436c-0.9,3.8-4.2,6.5-8,6.6
							c-1.6,0.1-3.1-0.6-4.2-1.8c-0.9-1.2-1.3-2.7-1-4.2c0.8-3.8,4.2-6.5,8-6.6c1.6-0.1,3.1,0.6,4.2,1.8
							C-841.7,433-841.3,434.5-841.6,436z M-801.6,434.4c-1,4.7-5.2,8.1-10,8.2c-2,0.1-3.9-0.8-5.3-2.3c-1.2-1.5-1.7-3.4-1.3-5.3
							c1-4.7,5.2-8.1,10-8.2c2-0.1,3.9,0.8,5.3,2.3C-801.7,430.6-801.2,432.5-801.6,434.4z M-791.9,417.4l-0.5,2.9h-4.8l0.8-4.6h4.8
							L-791.9,417.4z M-791,412.2h-6.8c-0.8,0-1.5,0.6-1.7,1.4l-1.4,8c-0.2,0.9,0.4,1.8,1.4,2c0.1,0,0.2,0,0.3,0h6.2l-1.7,9.3h-3.3
							c0-2.2-0.8-4.4-2.2-6.1c-2-2.3-4.9-3.6-7.9-3.5c-5.9,0.2-11.1,4-13,9.6h-17.2c-0.3-1.2-0.8-2.4-1.7-3.4c-1.7-2-4.2-3.1-6.8-3
							c-5.2,0.1-9.8,3.6-11.2,8.7c0.1-2.1-0.6-4.1-1.9-5.7c-1.7-2-4.2-3.1-6.8-3c-4.3,0.1-8.3,2.5-10.3,6.4h-3.7l1.7-9.4h58.1
							c0.8,0,1.5-0.6,1.7-1.4l7.3-40.1h20.3l0.2,1.4h-11.2c-0.8,0-1.5,0.6-1.7,1.4l-3.5,19.1c-0.1,0.4,0,0.8,0.2,1.1l2.4,4.8
							c0.3,0.6,0.9,0.9,1.5,0.9h12.8L-791,412.2z M-802.5,407.5l-1.7-3.3l3.1-17.2h8.6l2,20.5H-802.5z"/>
					</g>
				</g>
			</g>
		</g>
	</g>
</g>
</svg>
