<?xml version="1.0" encoding="utf-8"?>
<!-- Generator: Adobe Illustrator 19.0.0, SVG Export Plug-In . SVG Version: 6.00 Build 0)  -->
<svg version="1.1" id="Layer_1" xmlns="http://www.w3.org/2000/svg" xmlns:xlink="http://www.w3.org/1999/xlink" x="0px" y="0px"
	 viewBox="-895 351 128 100" style="enable-background:new -895 351 128 100;" xml:space="preserve">
<style type="text/css">
	.st0{fill:#CB1228;}
</style>
<title>truck-2</title>
<desc>Created with Sketch.</desc>
<g id="Page-1">
	<g id="promlit.ru" transform="translate(-90.000000, -4190.000000)">
		<g id="Group-56" transform="translate(90.000000, 3877.000000)">
			<g id="Group-51-Copy" transform="translate(0.000000, 306.000000)">
				<g id="truck-2" transform="translate(0.000000, 7.000000)">
					<path id="Shape" class="st0" d="M-801.7,363.7c-0.1,0-0.2,0-0.3,0h-62.4c-0.9,0-1.7,0.7-1.9,1.6l-1.9,10.7
						c-0.2,1,0.5,2,1.5,2.2c1,0.2,2-0.5,2.2-1.5l1.6-9.1h58.5l-8.6,47.7h-58.5l2-11.1c0.2-1-0.5-2-1.5-2.2c-1-0.2-2,0.5-2.2,1.5
						l-2.4,13.4c-0.2,1,0.5,2,1.5,2.2c0.1,0,0.2,0,0.3,0h62.4c0.9,0,1.7-0.7,1.9-1.6l9.3-51.5C-800,364.8-800.7,363.8-801.7,363.7z"
						/>
					<path id="Shape_1_" class="st0" d="M-854.5,381.1H-890c-2.3,0-4.1,0.9-4.1,1.9c0,1.1,1.8,1.9,4.1,1.9h35.4
						c2.3,0,4.1-0.9,4.1-1.9C-850.5,382-852.3,381.1-854.5,381.1z"/>
					<path id="Shape_2_" class="st0" d="M-870.4,389.4c-0.8-0.7-2-0.7-2.7,0c-0.4,0.4-0.6,0.9-0.6,1.4c0,0.5,0.2,1,0.6,1.4
						c0.8,0.8,2,0.8,2.7,0c0.4-0.4,0.6-0.9,0.6-1.4C-869.8,390.3-870,389.8-870.4,389.4z"/>
					<path id="Shape_3_" class="st0" d="M-843.2,388.9h-21.2c-1.4,0-2.4,0.9-2.4,1.9s1.1,1.9,2.4,1.9h21.2c1.4,0,2.4-0.9,2.4-1.9
						S-841.9,388.9-843.2,388.9z"/>
					<path id="Shape_4_" class="st0" d="M-859,394.7h-32.3c-2.1,0-3.7,0.9-3.7,1.9s1.7,1.9,3.7,1.9h32.3c2.1,0,3.7-0.9,3.7-1.9
						S-857,394.7-859,394.7z"/>
					<path id="Shape_5_" class="st0" d="M-848.1,395.2c-0.8-0.7-2-0.7-2.7,0c-0.8,0.8-0.8,2,0,2.8c0.4,0.4,0.9,0.6,1.4,0.6
						c1.1,0,1.9-0.9,1.9-2C-847.6,396.1-847.8,395.6-848.1,395.2z"/>
					<path id="Shape_6_" class="st0" d="M-773.1,352.6c0-0.1-0.1-0.3-0.1-0.4c-0.1-0.1-0.1-0.2-0.2-0.3c-0.1-0.1-0.2-0.2-0.3-0.3
						c-0.8-0.7-2-0.7-2.7,0c-0.1,0.1-0.2,0.2-0.3,0.3c-0.1,0.1-0.1,0.2-0.2,0.3c0,0.1-0.1,0.2-0.1,0.4c0,0.1,0,0.2,0,0.4
						c0,0.3,0,0.5,0.1,0.8c0.1,0.2,0.2,0.4,0.4,0.6c0.1,0.1,0.2,0.2,0.3,0.2c0.1,0.1,0.2,0.1,0.3,0.2c0.1,0,0.2,0.1,0.4,0.1
						c0.1,0,0.3,0,0.4,0c0.5,0,1-0.2,1.4-0.6c0.4-0.4,0.6-0.9,0.6-1.4C-773,352.8-773,352.7-773.1,352.6z"/>
					<path id="Shape_7_" class="st0" d="M-784.2,351h-23.3c-1.3,0-2.4,0.9-2.4,1.9s1.1,1.9,2.4,1.9h23.3c1.3,0,2.4-0.9,2.4-1.9
						S-782.8,351-784.2,351z"/>
					<path id="Shape_8_" class="st0" d="M-771.7,359.3c-0.5-0.5-1.1-0.7-1.7-0.5c-0.1,0-0.2,0.1-0.4,0.1c-0.1,0.1-0.2,0.1-0.3,0.2
						c-0.1,0.1-0.2,0.1-0.3,0.2c-0.2,0.2-0.3,0.4-0.4,0.6c-0.1,0.2-0.2,0.5-0.2,0.8c0,0.5,0.2,1,0.6,1.4c0.1,0.1,0.2,0.2,0.3,0.3
						c0.1,0.1,0.2,0.1,0.3,0.2c0.1,0.1,0.2,0.1,0.4,0.1c0.1,0,0.2,0,0.4,0c0.3,0,0.5-0.1,0.7-0.2c0.2-0.1,0.5-0.2,0.6-0.4
						c0.1-0.1,0.2-0.2,0.2-0.3c0.1-0.1,0.1-0.2,0.2-0.3c0-0.1,0.1-0.2,0.1-0.4c0-0.1,0-0.2,0-0.4
						C-771.1,360.2-771.3,359.7-771.7,359.3z"/>
					<path id="Shape_9_" class="st0" d="M-781.3,358.8h-16.4c-1.3,0-2.4,0.9-2.4,1.9s1.1,1.9,2.4,1.9h16.4c1.3,0,2.4-0.9,2.4-1.9
						S-779.9,358.8-781.3,358.8z"/>
					<path id="Shape_10_" class="st0" d="M-787.7,434.3c-1-1.1-2.5-1.7-4-1.7c-3.1,0-5.7,2.1-6.4,5c-0.3,1.4,0.1,2.9,1,4
						c1,1.1,2.5,1.7,4,1.7c3.1,0,5.7-2.1,6.4-5C-786.4,436.8-786.8,435.4-787.7,434.3z M-790.5,437.6L-790.5,437.6
						c-0.3,1.1-1.3,1.9-2.5,1.9c-0.4,0-0.7-0.1-1-0.4c-0.2-0.3-0.3-0.6-0.2-0.9c0.3-1.1,1.3-1.9,2.5-1.9c0.4,0,0.7,0.1,1,0.4
						C-790.5,436.9-790.5,437.2-790.5,437.6z"/>
					<path id="Shape_11_" class="st0" d="M-832.9,437.7c-0.7-0.8-1.7-1.3-2.7-1.3c-2,0-3.7,1.5-4.1,3.5c-0.2,1,0.1,2.1,0.7,3
						c0.7,0.8,1.7,1.3,2.8,1.3c2,0,3.7-1.5,4.1-3.5C-831.9,439.6-832.2,438.5-832.9,437.7z"/>
					<path id="Shape_12_" class="st0" d="M-854.2,437.7c-0.7-0.8-1.7-1.3-2.7-1.3c-2,0-3.7,1.5-4.1,3.5c-0.2,1,0.1,2.1,0.7,3
						c0.7,0.8,1.7,1.3,2.7,1.3c2,0,3.7-1.5,4.1-3.5C-853.2,439.6-853.5,438.5-854.2,437.7z"/>
					<path id="Shape_13_" class="st0" d="M-767.2,409.9l-2.3-24.6c0.5,0,0.9-0.3,1.2-0.6c0.4-0.4,0.5-1,0.4-1.5l-0.9-5.3
						c-0.2-0.9-0.9-1.6-1.9-1.6h-25.7c-0.9,0-1.7,0.7-1.9,1.6l-8.1,44.5h-71.9c-0.9,0-1.7,0.7-1.9,1.6l-1.3,7.1
						c-0.2,1,0.5,2,1.5,2.2c0.1,0,0.2,0,0.3,0h5.1l-0.9,4.8c-0.2,1,0.5,2,1.5,2.2c0.1,0,0.2,0,0.3,0h5.1c-0.4,2.6,0.3,5.3,2,7.3
						c1.9,2.2,4.7,3.4,7.5,3.3c5.8-0.1,10.9-4,12.4-9.6c-0.1,2.3,0.6,4.5,2.1,6.3c1.9,2.2,4.7,3.4,7.5,3.3
						c6.1-0.1,11.4-4.4,12.7-10.4c0-0.1,0-0.1,0-0.2h18.4c0,2.5,0.8,4.9,2.4,6.8c2.2,2.5,5.4,4,8.8,3.9c6.6-0.2,12.3-4.4,14.4-10.6
						h5.9c0.9,0,1.7-0.7,1.9-1.6l2.6-14.2l0.8-4.3l1.8-9.8c0-0.1,0-0.2,0-0.2C-767.2,410.1-767.2,410-767.2,409.9z M-873.8,429.4
						h-3.5l0.6-3.3h3.5L-873.8,429.4z M-849.9,439.9c-1,4.2-4.6,7.2-8.9,7.3c-1.8,0.1-3.5-0.7-4.6-2c-1-1.3-1.4-3-1.1-4.6
						c1-4.2,4.6-7.2,8.9-7.3c1.8-0.1,3.5,0.7,4.6,2C-850,436.5-849.6,438.3-849.9,439.9z M-827.9,439.9c-1,4.2-4.6,7.2-8.9,7.3
						c-1.8,0.1-3.5-0.7-4.6-2c-1-1.3-1.4-3-1.1-4.6c0.9-4.2,4.6-7.2,8.9-7.3c1.8-0.1,3.5,0.7,4.6,2
						C-827.9,436.5-827.5,438.3-827.9,439.9z M-783.5,438.1c-1.2,5.2-5.7,9-11.1,9.1c-2.2,0.1-4.4-0.8-5.8-2.5
						c-1.3-1.7-1.8-3.8-1.4-5.9c1.2-5.2,5.7-9,11.1-9.1c2.2-0.1,4.4,0.8,5.8,2.5C-783.5,433.9-783,436-783.5,438.1z M-772.7,419.2
						l-0.6,3.2h-5.3l0.9-5.1h5.3L-772.7,419.2z M-771.7,413.5h-7.6c-0.9,0-1.7,0.7-1.9,1.6l-1.6,8.9c-0.2,1,0.5,2,1.5,2.2
						c0.1,0,0.2,0,0.3,0h6.9l-1.9,10.4h-3.7c0-2.5-0.8-4.9-2.4-6.8c-2.2-2.5-5.4-4-8.8-3.9c-6.6,0.2-12.3,4.4-14.4,10.6h-19.1
						c-0.3-1.4-0.9-2.7-1.8-3.8c-1.9-2.2-4.7-3.4-7.5-3.3c-5.8,0.1-10.9,4-12.4,9.6c0.1-2.3-0.6-4.5-2.1-6.3
						c-1.9-2.2-4.7-3.4-7.5-3.3c-4.8,0.1-9.2,2.8-11.5,7.1h-4.1l1.9-10.4h64.6c0.9,0,1.7-0.7,1.9-1.6l8.1-44.5h22.5l0.2,1.5h-12.5
						c-0.9,0-1.7,0.7-1.9,1.6l-3.9,21.3c-0.1,0.4,0,0.8,0.2,1.2l2.7,5.3c0.3,0.6,1,1,1.7,1h14.3L-771.7,413.5z M-784.5,408.2
						l-1.9-3.7l3.5-19.1h9.5l2.2,22.8H-784.5z"/>
				</g>
			</g>
		</g>
	</g>
</g>
</svg>
